<svg width="667" height="460" viewBox="0 0 667 460" fill="none" xmlns="http://www.w3.org/2000/svg">
<path d="M0 128.515C0 75.3579 43.0927 32.2653 96.2502 32.2653H553.435C600.09 32.2653 638.992 65.4607 647.811 109.521C649.04 115.662 649.685 122.013 649.685 128.515V138.091V362.951C649.685 416.108 606.592 459.201 553.435 459.201H96.2502C46.0328 459.201 4.79762 420.743 0.389886 371.673C0.131825 368.8 0 365.891 0 362.951L2.46296e-05 342.522L0 128.515Z" fill="#1298D5"/>
<path fill-rule="evenodd" clip-rule="evenodd" d="M647.811 109.521C623.984 102.751 588.984 102.656 537.617 118.136C475.003 137.006 425.978 175.142 373.959 215.941L371.475 217.889C319.821 258.41 264.083 302.133 186.577 336.932C109.443 371.563 52.0292 364.112 14.3084 349.023C9.20043 346.98 4.43022 344.787 2.46296e-05 342.522L0 362.951C0 365.891 0.131825 368.8 0.389886 371.673C1.75746 372.257 3.14717 372.831 4.55898 373.396C48.869 391.12 113.682 398.434 197.329 360.879C277.784 324.756 335.667 279.346 387.143 238.962C388.151 238.171 389.156 237.383 390.159 236.596C442.73 195.364 488.04 160.493 545.191 143.269C603.351 125.742 634.197 130.926 649.685 138.091V128.515C649.685 122.013 649.04 115.662 647.811 109.521Z" fill="white"/>
<g filter="url(#filter0_f_2088_59)">
<circle cx="535.935" cy="130.703" r="65.6247" fill="white"/>
</g>
<circle cx="535.935" cy="130.702" r="32.8124" fill="white"/>
<defs>
<filter id="filter0_f_2088_59" x="405.233" y="3.05176e-05" width="261.405" height="261.405" filterUnits="userSpaceOnUse" color-interpolation-filters="sRGB">
<feFlood flood-opacity="0" result="BackgroundImageFix"/>
<feBlend mode="normal" in="SourceGraphic" in2="BackgroundImageFix" result="shape"/>
<feGaussianBlur stdDeviation="32.5389" result="effect1_foregroundBlur_2088_59"/>
</filter>
</defs>
</svg>
